<?xml version="1.0" encoding="UTF-8" standalone="no"?>
<!-- Created with Inkscape (http://www.inkscape.org/) -->

<svg
   version="1.1"
   id="svg1"
   width="2400"
   height="325"
   viewBox="0 0 2400 325"
   xmlns="http://www.w3.org/2000/svg"
   xmlns:svg="http://www.w3.org/2000/svg">
  <defs
     id="defs1">
    <radialGradient
       fx="0.5"
       fy="0.5"
       cx="0.5"
       cy="0.5"
       r="0.5"
       gradientUnits="userSpaceOnUse"
       gradientTransform="matrix(184.89532,0,0,30.895311,15.172655,203.67264)"
       spreadMethod="pad"
       id="radialGradient4">
      <stop
         style="stop-opacity:0.05999847;stop-color:#000000"
         offset="0"
         id="stop3" />
      <stop
         style="stop-opacity:0;stop-color:#000000"
         offset="1"
         id="stop4" />
    </radialGradient>
    <radialGradient
       fx="0.34999999"
       fy="0.30000001"
       cx="0.34999999"
       cy="0.30000001"
       r="0.64999998"
       gradientUnits="userSpaceOnUse"
       gradientTransform="matrix(36.440624,0,0,36.440624,48.364072,41.589847)"
       spreadMethod="pad"
       id="radialGradient42">
      <stop
         style="stop-opacity:1;stop-color:#ffffff"
         offset="0"
         id="stop41" />
      <stop
         style="stop-opacity:1;stop-color:#aaaaaa"
         offset="1"
         id="stop42" />
    </radialGradient>
    <radialGradient
       fx="0.34999999"
       fy="0.30000001"
       cx="0.34999999"
       cy="0.30000001"
       r="0.64999998"
       gradientUnits="userSpaceOnUse"
       gradientTransform="matrix(36.440624,0,0,36.440624,17.787493,66.463295)"
       spreadMethod="pad"
       id="radialGradient44">
      <stop
         style="stop-opacity:1;stop-color:#ffffff"
         offset="0"
         id="stop43" />
      <stop
         style="stop-opacity:1;stop-color:#aaaaaa"
         offset="1"
         id="stop44" />
    </radialGradient>
    <radialGradient
       fx="0.34999999"
       fy="0.30000001"
       cx="0.34999999"
       cy="0.30000001"
       r="0.64999998"
       gradientUnits="userSpaceOnUse"
       gradientTransform="matrix(48.642167,0,0,48.639073,26.97501,39.055466)"
       spreadMethod="pad"
       id="radialGradient46">
      <stop
         style="stop-opacity:1;stop-color:#666666"
         offset="0"
         id="stop45" />
      <stop
         style="stop-opacity:1;stop-color:#1a1a1a"
         offset="1"
         id="stop46" />
    </radialGradient>
    <radialGradient
       fx="0.34999999"
       fy="0.30000001"
       cx="0.34999999"
       cy="0.30000001"
       r="0.64999998"
       gradientUnits="userSpaceOnUse"
       gradientTransform="matrix(36.440624,0,0,36.440624,17.787493,23.765628)"
       spreadMethod="pad"
       id="radialGradient48">
      <stop
         style="stop-opacity:1;stop-color:#ffffff"
         offset="0"
         id="stop47" />
      <stop
         style="stop-opacity:1;stop-color:#aaaaaa"
         offset="1"
         id="stop48" />
    </radialGradient>
    <radialGradient
       fx="0.34999999"
       fy="0.30000001"
       cx="0.34999999"
       cy="0.30000001"
       r="0.64999998"
       gradientUnits="userSpaceOnUse"
       gradientTransform="matrix(36.440624,0,0,36.440624,48.364072,48.719534)"
       spreadMethod="pad"
       id="radialGradient50">
      <stop
         style="stop-opacity:1;stop-color:#ffffff"
         offset="0"
         id="stop49" />
      <stop
         style="stop-opacity:1;stop-color:#aaaaaa"
         offset="1"
         id="stop50" />
    </radialGradient>
    <radialGradient
       fx="0.34999999"
       fy="0.30000001"
       cx="0.34999999"
       cy="0.30000001"
       r="0.64999998"
       gradientUnits="userSpaceOnUse"
       gradientTransform="matrix(48.639073,0,0,48.639073,30.224217,138.0789)"
       spreadMethod="pad"
       id="radialGradient52">
      <stop
         style="stop-opacity:1;stop-color:#666666"
         offset="0"
         id="stop51" />
      <stop
         style="stop-opacity:1;stop-color:#1a1a1a"
         offset="1"
         id="stop52" />
    </radialGradient>
    <radialGradient
       fx="0.34999999"
       fy="0.30000001"
       cx="0.34999999"
       cy="0.30000001"
       r="0.64999998"
       gradientUnits="userSpaceOnUse"
       gradientTransform="matrix(48.639073,0,0,48.639073,55.574216,138.0789)"
       spreadMethod="pad"
       id="radialGradient54">
      <stop
         style="stop-opacity:1;stop-color:#ffb040"
         offset="0"
         id="stop53" />
      <stop
         style="stop-opacity:1;stop-color:#cc7000"
         offset="1"
         id="stop54" />
    </radialGradient>
    <radialGradient
       fx="0.34999999"
       fy="0.30000001"
       cx="0.34999999"
       cy="0.30000001"
       r="0.64999998"
       gradientUnits="userSpaceOnUse"
       gradientTransform="matrix(48.639073,0,0,48.639073,158.95468,72.961708)"
       spreadMethod="pad"
       id="radialGradient56">
      <stop
         style="stop-opacity:1;stop-color:#4a9aff"
         offset="0"
         id="stop55" />
      <stop
         style="stop-opacity:1;stop-color:#053080"
         offset="1"
         id="stop56" />
    </radialGradient>
    <radialGradient
       fx="0.34999999"
       fy="0.30000001"
       cx="0.34999999"
       cy="0.30000001"
       r="0.64999998"
       gradientUnits="userSpaceOnUse"
       gradientTransform="matrix(48.642167,0,0,48.639073,184.77814,72.961708)"
       spreadMethod="pad"
       id="radialGradient58">
      <stop
         style="stop-opacity:1;stop-color:#ffb040"
         offset="0"
         id="stop57" />
      <stop
         style="stop-opacity:1;stop-color:#cc7000"
         offset="1"
         id="stop58" />
    </radialGradient>
    <radialGradient
       fx="0.34999999"
       fy="0.30000001"
       cx="0.34999999"
       cy="0.30000001"
       r="0.64999998"
       gradientUnits="userSpaceOnUse"
       gradientTransform="matrix(48.642167,0,0,48.639073,181.21329,140.61328)"
       spreadMethod="pad"
       id="radialGradient60">
      <stop
         style="stop-opacity:1;stop-color:#ffb040"
         offset="0"
         id="stop59" />
      <stop
         style="stop-opacity:1;stop-color:#cc7000"
         offset="1"
         id="stop60" />
    </radialGradient>
    <radialGradient
       fx="0.34999999"
       fy="0.30000001"
       cx="0.34999999"
       cy="0.30000001"
       r="0.64999998"
       gradientUnits="userSpaceOnUse"
       gradientTransform="matrix(48.639073,0,0,48.639073,207.27812,151.54609)"
       spreadMethod="pad"
       id="radialGradient62">
      <stop
         style="stop-opacity:1;stop-color:#4a9aff"
         offset="0"
         id="stop61" />
      <stop
         style="stop-opacity:1;stop-color:#053080"
         offset="1"
         id="stop62" />
    </radialGradient>
    <radialGradient
       fx="0.34999999"
       fy="0.30000001"
       cx="0.34999999"
       cy="0.30000001"
       r="0.64999998"
       gradientUnits="userSpaceOnUse"
       gradientTransform="matrix(48.642167,0,0,48.639073,230.72501,140.61328)"
       spreadMethod="pad"
       id="radialGradient64">
      <stop
         style="stop-opacity:1;stop-color:#ffb040"
         offset="0"
         id="stop63" />
      <stop
         style="stop-opacity:1;stop-color:#cc7000"
         offset="1"
         id="stop64" />
    </radialGradient>
  </defs>
  <g
     id="g1">
    <path
       d="m 200.07,219.117 c 0,8.535 -41.39,15.449 -92.449,15.449 -51.059,0 -92.449,-6.914 -92.449,-15.449 0,-8.531 41.39,-15.445 92.449,-15.445 51.059,0 92.449,6.914 92.449,15.445 z"
       transform="scale(1.3333333)"
       style="fill:url(#radialGradient4);stroke:none"
       opacity="1"
       id="path4" />
    <path
       id="path5"
       d="m 232.312,152.336 0.157,-2.215 0.16,-2.141 0.078,-2.296 v -4.516 l -0.078,-2.375 -0.16,-2.379 -0.239,-2.375 -0.316,-2.379 -0.316,-2.453 -0.395,-2.535 -0.476,-2.457 -4.594,1.742 -2.457,0.871 -2.457,0.793 -2.535,0.793 -2.692,0.793 -2.613,0.711 -2.774,0.715 -5.703,1.265 -2.933,0.633 -3.008,0.555 -2.297,4.121 -2.379,4.199 -2.457,4.039 -2.535,4.039 -2.691,3.883 -2.696,3.883 -2.769,3.801 -2.852,3.644 -2.933,3.645 -3.008,3.566 -3.012,3.406 -3.168,3.325 1.027,2.218 0.954,2.219 0.871,2.059 0.871,2.062 0.871,1.899 0.793,1.902 0.793,1.824 0.711,1.821 0.633,1.664 0.714,1.582 0.555,1.586 0.555,1.504 5.859,-1.899 2.856,-1.109 2.769,-1.031 5.547,-2.376 2.691,-1.269 2.618,-1.348 5.226,-2.851 4.914,-3.008 2.375,-2.535 2.297,-2.613 2.219,-2.618 2.219,-2.691 4.117,-5.547 2.062,-2.852 1.899,-2.929 1.902,-2.934 1.82,-2.929 1.746,-3.012 z"
       style="fill:#0748aa;fill-opacity:1;fill-rule:nonzero;stroke:#0748aa;stroke-width:0.396094;stroke-linecap:butt;stroke-linejoin:miter;stroke-miterlimit:4;stroke-dasharray:none;stroke-opacity:1"
       transform="scale(1.3333333)" />
    <path
       id="path6"
       d="m 175.512,200.977 -0.555,-1.504 -0.555,-1.586 -0.714,-1.582 -0.633,-1.664 -0.711,-1.821 -0.793,-1.824 -0.793,-1.902 -0.871,-1.899 -0.871,-2.062 -0.871,-2.059 -0.954,-2.219 -1.027,-2.218 -4.359,0.554 -4.434,0.477 -4.437,0.316 -4.516,0.239 -4.516,0.16 -4.593,0.078 -4.676,-0.078 -4.594,-0.16 -4.672,-0.239 -4.676,-0.316 -4.753,-0.477 -4.672,-0.554 -2.379,2.218 -2.375,2.219 -2.379,2.059 -2.375,2.062 -2.375,1.899 -2.297,1.902 -2.379,1.824 -2.375,1.821 -2.297,1.664 -2.379,1.582 -2.297,1.586 -2.297,1.504 1.586,1.902 1.582,1.824 1.586,1.82 1.582,1.743 1.586,1.664 1.664,1.586 1.582,1.582 1.665,1.507 1.585,1.426 1.665,1.344 1.664,1.27 1.582,1.187 3.488,0.395 3.406,0.32 3.406,0.316 3.407,0.157 3.406,0.16 h 6.812 l 3.329,-0.16 3.406,-0.157 3.324,-0.316 3.406,-0.32 3.328,-0.395 2.774,-1.187 2.851,-1.27 2.774,-1.344 2.773,-1.426 2.774,-1.507 2.691,-1.582 2.695,-1.586 2.692,-1.664 2.613,-1.743 2.617,-1.82 2.614,-1.824 z"
       style="fill:#03285e;fill-opacity:1;fill-rule:nonzero;stroke:#03285e;stroke-width:0.396094;stroke-linecap:butt;stroke-linejoin:miter;stroke-miterlimit:4;stroke-dasharray:none;stroke-opacity:1"
       transform="scale(1.3333333)" />
    <path
       id="path7"
       d="m 240.152,84.844 -0.949,-2.852 -1.109,-2.851 -1.11,-2.774 -1.187,-2.851 -1.27,-2.852 -1.343,-2.773 -2.852,-5.703 -3.172,-5.547 -1.664,-2.774 -1.66,-2.769 -2.301,-0.399 -2.297,-0.394 -4.75,-0.633 -2.457,-0.32 -5.07,-0.633 -2.613,-0.239 -2.618,-0.316 -2.769,-0.238 -2.695,-0.235 -2.774,-0.238 -1.109,3.324 -1.188,3.25 -1.265,3.328 -1.27,3.325 -1.265,3.328 -1.426,3.328 -1.348,3.406 -1.504,3.328 -1.508,3.328 -1.504,3.325 -1.585,3.406 -1.661,3.328 2.215,3.961 2.219,3.883 2.141,3.961 2.058,3.883 1.981,3.878 1.902,3.805 1.82,3.801 1.664,3.805 1.664,3.722 1.586,3.645 1.504,3.644 1.348,3.641 3.008,-0.555 2.933,-0.633 5.703,-1.265 2.774,-0.715 2.613,-0.711 2.692,-0.793 2.535,-0.793 2.457,-0.793 2.457,-0.871 4.594,-1.742 1.109,-3.168 1.109,-3.25 0.95,-3.246 0.949,-3.25 0.875,-3.246 0.871,-3.328 0.711,-3.247 0.715,-3.328 0.632,-3.328 0.555,-3.328 0.555,-3.324 z"
       style="fill:#78a6ea;fill-opacity:1;fill-rule:nonzero;stroke:#78a6ea;stroke-width:0.396094;stroke-linecap:butt;stroke-linejoin:miter;stroke-miterlimit:4;stroke-dasharray:none;stroke-opacity:1"
       transform="scale(1.3333333)" />
    <path
       id="path8"
       d="m 111.266,178.637 -1.903,-3.325 -1.82,-3.406 -1.902,-3.566 -1.903,-3.645 -1.82,-3.644 -1.902,-3.801 -1.825,-3.883 -1.82,-3.883 -1.82,-4.039 -1.824,-4.039 -1.821,-4.199 -1.824,-4.121 -3.723,-0.555 -3.644,-0.633 -3.723,-0.632 -3.644,-0.633 -3.723,-0.715 -3.566,-0.711 -3.641,-0.793 -7.133,-1.586 -6.969,-1.742 -3.488,-0.871 -1.582,2.457 -1.586,2.535 -1.504,2.453 -1.504,2.379 -1.425,2.375 -1.43,2.379 -1.426,2.375 -1.344,2.297 -1.269,2.219 -1.348,2.296 -1.187,2.141 -1.266,2.215 1.188,3.09 1.187,3.012 1.27,2.929 1.265,2.934 1.27,2.929 1.343,2.852 2.852,5.547 1.426,2.691 1.508,2.618 1.504,2.613 1.585,2.535 3.008,1.504 3.09,1.504 3.012,1.426 3.09,1.425 3.168,1.348 3.089,1.269 6.336,2.376 3.25,1.031 3.168,1.109 3.25,0.949 3.246,0.95 2.297,-1.504 2.297,-1.586 2.379,-1.582 2.297,-1.664 2.375,-1.821 2.379,-1.824 2.297,-1.902 2.375,-1.899 2.375,-2.062 2.379,-2.059 2.375,-2.219 z"
       style="fill:#032c68;fill-opacity:1;fill-rule:nonzero;stroke:#032c68;stroke-width:0.396094;stroke-linecap:butt;stroke-linejoin:miter;stroke-miterlimit:4;stroke-dasharray:none;stroke-opacity:1"
       transform="scale(1.3333333)" />
    <path
       id="path9"
       d="m 198.961,133.086 -1.348,-3.641 -1.504,-3.644 -1.586,-3.645 -1.664,-3.722 -1.664,-3.805 -1.82,-3.801 -1.902,-3.805 -1.981,-3.878 -2.058,-3.883 -2.141,-3.961 -2.219,-3.883 -2.215,-3.961 -4.359,0.078 h -4.355 l -4.438,0.082 h -27.566 l -4.754,-0.082 h -4.676 l -4.832,-0.078 -2.691,3.961 -2.696,3.883 -2.773,3.961 -2.77,3.883 -2.695,3.878 -2.774,3.805 -2.773,3.801 -2.691,3.805 -2.774,3.722 -2.691,3.645 -2.774,3.644 -2.695,3.641 1.824,4.121 1.821,4.199 1.824,4.039 1.82,4.039 1.82,3.883 1.825,3.883 1.902,3.801 1.82,3.644 1.903,3.645 1.902,3.566 1.82,3.406 1.903,3.325 4.672,0.554 4.753,0.477 4.676,0.316 4.672,0.239 4.594,0.16 4.676,0.078 4.593,-0.078 4.516,-0.16 4.516,-0.239 4.437,-0.316 4.434,-0.477 4.359,-0.554 3.168,-3.325 3.012,-3.406 3.008,-3.566 2.933,-3.645 2.852,-3.644 2.769,-3.801 2.696,-3.883 2.691,-3.883 2.535,-4.039 2.457,-4.039 2.379,-4.199 z"
       style="fill:#1967dc;fill-opacity:1;fill-rule:nonzero;stroke:#1967dc;stroke-width:0.396094;stroke-linecap:butt;stroke-linejoin:miter;stroke-miterlimit:4;stroke-dasharray:none;stroke-opacity:1"
       transform="scale(1.3333333)" />
    <path
       id="path10"
       d="m 193.492,47.453 -2.058,-2.617 -2.059,-2.613 -2.063,-2.535 -2.214,-2.614 -2.141,-2.535 -4.437,-5.07 -2.297,-2.457 -2.297,-2.453 -2.375,-2.457 -2.379,-2.375 -2.453,-2.379 -3.25,-0.239 -3.246,-0.078 -3.328,-0.156 -3.329,-0.082 h -3.406 l -3.406,-0.078 -3.406,0.078 h -3.407 l -3.406,0.082 -3.484,0.156 -3.489,0.078 -3.484,0.239 -2.058,2.379 -2.063,2.375 -2.059,2.457 -2.136,2.453 -2.063,2.457 -2.137,2.535 -2.058,2.535 -2.063,2.535 -2.136,2.614 -2.063,2.535 -2.137,2.613 -2.058,2.617 1.742,3.324 1.742,3.25 1.742,3.328 1.743,3.325 1.742,3.328 1.746,3.328 1.742,3.406 3.484,6.656 1.743,3.325 1.742,3.406 1.664,3.328 4.832,0.078 h 4.676 l 4.754,0.082 h 27.566 l 4.438,-0.082 h 4.355 l 4.359,-0.078 1.661,-3.328 1.585,-3.406 1.504,-3.325 1.508,-3.328 1.504,-3.328 1.348,-3.406 1.426,-3.328 1.265,-3.328 1.27,-3.325 1.265,-3.328 1.188,-3.25 z"
       style="fill:#cedff8;fill-opacity:1;fill-rule:nonzero;stroke:#cedff8;stroke-width:0.396094;stroke-linecap:butt;stroke-linejoin:miter;stroke-miterlimit:4;stroke-dasharray:none;stroke-opacity:1"
       transform="scale(1.3333333)" />
    <path
       id="path11"
       d="m 121.879,87.457 -1.664,-3.328 -1.742,-3.406 -1.743,-3.325 -3.484,-6.656 -1.742,-3.406 -1.746,-3.328 -1.742,-3.328 -1.743,-3.325 -1.742,-3.328 -1.742,-3.25 -1.742,-3.324 -3.406,0.238 -3.411,0.235 -3.324,0.238 -3.406,0.316 -3.328,0.239 -6.656,0.633 -3.325,0.32 -3.25,0.316 -3.328,0.317 -3.246,0.394 -3.25,0.399 -2.137,2.769 -2.218,2.774 -2.059,2.773 -2.141,2.774 -4.117,5.703 -1.98,2.773 -3.961,5.703 -1.902,2.774 -1.903,2.851 -1.82,2.852 0.555,3.328 0.632,3.324 1.266,6.656 0.715,3.328 0.711,3.247 0.793,3.328 0.793,3.246 0.793,3.25 0.871,3.246 0.871,3.25 0.949,3.168 3.488,0.871 6.969,1.742 7.133,1.586 3.641,0.793 3.566,0.711 3.723,0.715 3.644,0.633 3.723,0.632 3.644,0.633 3.723,0.555 2.695,-3.641 2.774,-3.644 2.691,-3.645 2.774,-3.722 2.691,-3.805 2.773,-3.801 2.774,-3.805 2.695,-3.878 2.77,-3.883 2.773,-3.961 2.696,-3.883 z"
       style="fill:#2972de;fill-opacity:1;fill-rule:nonzero;stroke:#2972de;stroke-width:0.396094;stroke-linecap:butt;stroke-linejoin:miter;stroke-miterlimit:4;stroke-dasharray:none;stroke-opacity:1"
       transform="scale(1.3333333)" />
    <path
       id="path12"
       d="m 198.961,133.086 -1.031,-2.691 -1.032,-2.774 -1.187,-2.691 -2.375,-5.547 -1.27,-2.852 -1.343,-2.851 -1.348,-2.852 -1.426,-2.851 -1.508,-2.934 -1.503,-2.852 -1.504,-2.929 -1.586,-2.934 -1.664,-2.93 -1.664,-3.011 -1.661,-2.93"
       style="fill:none;stroke:#003273;stroke-width:1.74281;stroke-linecap:round;stroke-linejoin:round;stroke-miterlimit:4;stroke-dasharray:none;stroke-opacity:0.9"
       transform="scale(1.3333333)" />
    <path
       id="path13"
       d="m 176.859,87.457 h -3.25 l -3.246,0.078 h -3.328 l -3.328,0.082 h -27.566 l -3.567,-0.082 h -3.566 l -3.563,-0.078 h -3.566"
       style="fill:none;stroke:#003478;stroke-width:1.74281;stroke-linecap:round;stroke-linejoin:round;stroke-miterlimit:4;stroke-dasharray:none;stroke-opacity:0.94"
       transform="scale(1.3333333)" />
    <path
       id="path14"
       d="m 121.879,87.457 -1.981,2.93 -2.058,3.011 -2.059,2.93 -2.062,2.934 -2.059,2.929 -2.058,2.852 -2.059,2.934 -2.063,2.851 -4.117,5.703 -2.062,2.852 -4.117,5.547 -1.981,2.691 -2.058,2.774 -2.063,2.691"
       style="fill:none;stroke:#003478;stroke-width:1.74281;stroke-linecap:round;stroke-linejoin:round;stroke-miterlimit:4;stroke-dasharray:none;stroke-opacity:0.94"
       transform="scale(1.3333333)" />
    <path
       id="path15"
       d="m 89.082,133.086 1.348,3.09 1.347,3.172 1.348,3.086 1.426,3.011 1.344,3.012 1.347,2.93 1.426,2.929 1.348,2.934 1.425,2.852 1.426,2.773 1.348,2.77 2.851,5.39 1.348,2.531 1.426,2.618 1.426,2.453"
       style="fill:none;stroke:#003274;stroke-width:1.74281;stroke-linecap:round;stroke-linejoin:round;stroke-miterlimit:4;stroke-dasharray:none;stroke-opacity:0.91"
       transform="scale(1.3333333)" />
    <path
       id="path16"
       d="m 111.266,178.637 3.484,0.476 3.566,0.317 3.485,0.316 3.566,0.238 3.485,0.239 3.484,0.078 3.484,0.082 3.489,0.078 3.406,-0.078 3.406,-0.082 3.406,-0.078 3.407,-0.239 3.328,-0.238 3.324,-0.316 3.328,-0.317 3.25,-0.476"
       style="fill:none;stroke:#003070;stroke-width:1.74281;stroke-linecap:round;stroke-linejoin:round;stroke-miterlimit:4;stroke-dasharray:none;stroke-opacity:0.87"
       transform="scale(1.3333333)" />
    <path
       id="path17"
       d="m 166.164,178.637 2.375,-2.453 2.297,-2.618 2.297,-2.531 4.437,-5.39 2.141,-2.77 2.137,-2.773 2.058,-2.852 2.063,-2.934 3.961,-5.859 1.898,-3.012 1.824,-3.011 1.821,-3.086 1.824,-3.172 1.664,-3.09"
       style="fill:none;stroke:#00306f;stroke-width:1.74281;stroke-linecap:round;stroke-linejoin:round;stroke-miterlimit:4;stroke-dasharray:none;stroke-opacity:0.87"
       transform="scale(1.3333333)" />
    <path
       id="path18"
       d="m 240.152,84.844 -0.711,-2.141 -0.793,-2.137 -0.793,-2.14 -0.871,-2.059 -0.871,-2.14 -0.949,-2.137 -0.953,-2.141 -1.027,-2.058 -1.032,-2.141 -1.109,-2.137 -1.109,-2.058 -1.188,-2.141 -1.187,-2.059 -1.188,-2.14 -1.269,-2.059 -1.266,-2.058"
       style="fill:none;stroke:#002e6b;stroke-width:1.74281;stroke-linecap:round;stroke-linejoin:round;stroke-miterlimit:4;stroke-dasharray:none;stroke-opacity:0.83"
       transform="scale(1.3333333)" />
    <path
       id="path19"
       d="m 223.836,51.098 -1.746,-0.321 -1.66,-0.234 -1.746,-0.316 -1.821,-0.239 -1.742,-0.238 -1.824,-0.238 -1.899,-0.239 -3.804,-0.476 -1.903,-0.235 -1.98,-0.16 -1.981,-0.238 -2.058,-0.156 -2.059,-0.16 -2.058,-0.239 -2.063,-0.156"
       style="fill:none;stroke:#003170;stroke-width:1.74281;stroke-linecap:round;stroke-linejoin:round;stroke-miterlimit:4;stroke-dasharray:none;stroke-opacity:0.87"
       transform="scale(1.3333333)" />
    <path
       id="path20"
       d="m 193.492,47.453 -0.871,2.453 -0.871,2.535 -0.871,2.457 -0.949,2.457 -0.953,2.536 -0.95,2.453 -1.031,2.535 -1.027,2.457 -1.031,2.535 -1.11,2.535 -1.027,2.457 -1.192,2.535 -1.109,2.536 -1.188,2.531 -1.265,2.457 -1.188,2.535"
       style="fill:none;stroke:#003275;stroke-width:1.74281;stroke-linecap:round;stroke-linejoin:round;stroke-miterlimit:4;stroke-dasharray:none;stroke-opacity:0.91"
       transform="scale(1.3333333)" />
    <path
       id="path21"
       d="m 198.961,133.086 2.297,-0.473 2.219,-0.398 2.136,-0.473 2.141,-0.476 2.137,-0.477 2.062,-0.555 2.059,-0.472 3.961,-1.11 1.98,-0.636 1.902,-0.551 1.821,-0.637 1.82,-0.633 1.824,-0.633 1.742,-0.632 1.665,-0.715"
       style="fill:none;stroke:#002f6d;stroke-width:1.74281;stroke-linecap:round;stroke-linejoin:round;stroke-miterlimit:4;stroke-dasharray:none;stroke-opacity:0.85"
       transform="scale(1.3333333)" />
    <path
       id="path22"
       d="m 230.727,124.215 0.871,-2.375 0.793,-2.457 0.793,-2.375 0.711,-2.457 0.714,-2.457 0.711,-2.453 0.633,-2.457 0.637,-2.457 0.555,-2.457 0.554,-2.454 0.473,-2.535 0.953,-4.914 0.395,-2.531 0.316,-2.535 0.316,-2.457"
       style="fill:none;stroke:#002d69;stroke-width:1.74281;stroke-linecap:round;stroke-linejoin:round;stroke-miterlimit:4;stroke-dasharray:none;stroke-opacity:0.82"
       transform="scale(1.3333333)" />
    <path
       id="path23"
       d="m 193.492,47.453 -1.504,-1.902 -1.586,-1.981 -1.582,-1.98 -1.508,-1.902 -1.66,-1.981 -1.586,-1.898 -4.992,-5.707 -1.742,-1.821 -1.664,-1.902 -1.742,-1.82 -1.821,-1.825 -1.742,-1.82 -1.824,-1.824 -1.82,-1.742"
       style="fill:none;stroke:#003274;stroke-width:1.74281;stroke-linecap:round;stroke-linejoin:round;stroke-miterlimit:4;stroke-dasharray:none;stroke-opacity:0.9"
       transform="scale(1.3333333)" />
    <path
       id="path24"
       d="m 166.719,17.348 -2.379,-0.157 -2.453,-0.16 -2.535,-0.078 -2.457,-0.078 -2.536,-0.082 h -2.535 l -2.457,-0.078 h -5.148 l -2.535,0.078 h -2.614 l -2.535,0.082 -5.226,0.156 -2.618,0.16 -2.613,0.157"
       style="fill:none;stroke:#003375;stroke-width:1.74281;stroke-linecap:round;stroke-linejoin:round;stroke-miterlimit:4;stroke-dasharray:none;stroke-opacity:0.92"
       transform="scale(1.3333333)" />
    <path
       id="path25"
       d="m 126.078,17.348 -1.504,1.742 -1.586,1.824 -1.582,1.82 -1.508,1.825 -1.582,1.82 -1.586,1.902 -1.585,1.821 -1.583,1.902 -1.507,1.902 -1.582,1.903 -1.586,1.898 -1.582,1.981 -1.586,1.902 -1.586,1.98 -1.582,1.981 -1.504,1.902"
       style="fill:none;stroke:#003478;stroke-width:1.74281;stroke-linecap:round;stroke-linejoin:round;stroke-miterlimit:4;stroke-dasharray:none;stroke-opacity:0.94"
       transform="scale(1.3333333)" />
    <path
       id="path26"
       d="m 101.047,47.453 1.265,2.453 1.348,2.535 1.266,2.457 1.347,2.457 1.27,2.536 1.344,2.453 1.269,2.535 1.348,2.457 1.344,2.535 1.269,2.535 1.348,2.457 2.531,5.071 1.348,2.531 1.269,2.457 1.266,2.535"
       style="fill:none;stroke:#003479;stroke-width:1.74281;stroke-linecap:round;stroke-linejoin:round;stroke-miterlimit:4;stroke-dasharray:none;stroke-opacity:0.95"
       transform="scale(1.3333333)" />
    <path
       id="path27"
       d="m 101.047,47.453 -2.535,0.156 -2.535,0.239 -2.536,0.16 -2.535,0.156 -2.535,0.238 -2.535,0.16 -2.457,0.235 -2.535,0.238 -2.457,0.238 -2.532,0.239 -7.371,0.715 -2.453,0.316 -2.457,0.234 -2.457,0.321"
       style="fill:none;stroke:#003478;stroke-width:1.74281;stroke-linecap:round;stroke-linejoin:round;stroke-miterlimit:4;stroke-dasharray:none;stroke-opacity:0.94"
       transform="scale(1.3333333)" />
    <path
       id="path28"
       d="m 61.117,51.098 -1.582,2.058 -1.664,2.059 -1.586,2.14 -1.582,2.059 -1.586,2.141 -1.582,2.058 -1.586,2.137 -1.504,2.141 -1.507,2.058 -1.504,2.141 -1.504,2.137 -1.426,2.14 -1.426,2.059 -1.426,2.14 -1.425,2.137 -1.348,2.141"
       style="fill:none;stroke:#003377;stroke-width:1.74281;stroke-linecap:round;stroke-linejoin:round;stroke-miterlimit:4;stroke-dasharray:none;stroke-opacity:0.93"
       transform="scale(1.3333333)" />
    <path
       id="path29"
       d="m 36.879,84.844 0.394,2.457 0.477,2.535 0.477,2.531 0.472,2.457 0.477,2.457 0.476,2.535 0.555,2.454 0.551,2.457 0.554,2.457 0.637,2.457 0.555,2.453 1.266,4.914 0.714,2.375 0.633,2.457 0.711,2.375"
       style="fill:none;stroke:#003375;stroke-width:1.74281;stroke-linecap:round;stroke-linejoin:round;stroke-miterlimit:4;stroke-dasharray:none;stroke-opacity:0.92"
       transform="scale(1.3333333)" />
    <path
       id="path30"
       d="m 45.828,124.215 2.617,0.715 2.535,0.632 2.692,0.633 2.613,0.633 2.695,0.637 2.614,0.551 2.695,0.636 2.77,0.555 2.695,0.555 2.691,0.472 2.774,0.555 5.547,0.953 2.773,0.473 2.77,0.398 2.773,0.473"
       style="fill:none;stroke:#003376;stroke-width:1.74281;stroke-linecap:round;stroke-linejoin:round;stroke-miterlimit:4;stroke-dasharray:none;stroke-opacity:0.92"
       transform="scale(1.3333333)" />
    <path
       id="path31"
       d="m 45.828,124.215 -1.187,1.902 -1.188,1.821 -1.187,1.824 -1.11,1.898 -1.109,1.746 -2.219,3.641 -1.031,1.746 -1.027,1.742 -1.032,1.742 -1.027,1.743 -0.953,1.664 -1.028,1.742 -0.953,1.664 -0.871,1.586 -0.949,1.66"
       style="fill:none;stroke:#003172;stroke-width:1.74281;stroke-linecap:round;stroke-linejoin:round;stroke-miterlimit:4;stroke-dasharray:none;stroke-opacity:0.89"
       transform="scale(1.3333333)" />
    <path
       id="path32"
       d="m 28.957,152.336 0.871,2.301 0.871,2.297 0.949,2.218 0.954,2.215 1.898,4.438 0.953,2.14 1.027,2.137 1.032,2.059 1.109,2.14 1.031,1.981 1.106,2.058 1.109,1.981 1.192,1.98 1.109,1.903 1.187,1.902"
       style="fill:none;stroke:#002f6e;stroke-width:1.74281;stroke-linecap:round;stroke-linejoin:round;stroke-miterlimit:4;stroke-dasharray:none;stroke-opacity:0.85"
       transform="scale(1.3333333)" />
    <path
       id="path33"
       d="m 45.355,186.086 2.297,1.187 2.219,1.11 2.297,1.109 2.297,1.028 2.375,1.031 2.297,1.031 2.379,1.027 2.296,0.953 2.376,0.872 2.378,0.871 2.454,0.871 2.378,0.793 2.375,0.793 2.457,0.789 2.458,0.715 2.374,0.711"
       style="fill:none;stroke:#002e6b;stroke-width:1.74281;stroke-linecap:round;stroke-linejoin:round;stroke-miterlimit:4;stroke-dasharray:none;stroke-opacity:0.84"
       transform="scale(1.3333333)" />
    <path
       id="path34"
       d="m 83.062,200.977 1.743,-1.11 3.484,-2.375 1.746,-1.187 1.742,-1.27 1.743,-1.265 1.742,-1.348 1.824,-1.426 1.742,-1.348 1.742,-1.503 1.821,-1.504 1.742,-1.508 1.824,-1.582 1.742,-1.586 1.742,-1.664 1.825,-1.664"
       style="fill:none;stroke:#00306e;stroke-width:1.74281;stroke-linecap:round;stroke-linejoin:round;stroke-miterlimit:4;stroke-dasharray:none;stroke-opacity:0.86"
       transform="scale(1.3333333)" />
    <path
       id="path35"
       d="m 175.512,200.977 -0.399,-1.11 -0.472,-1.187 -0.399,-1.188 -0.554,-1.187 -0.473,-1.27 -0.555,-1.265 -0.555,-1.348 -0.554,-1.426 -0.555,-1.348 -0.633,-1.503 -0.636,-1.504 -0.711,-1.508 -0.633,-1.582 -0.715,-1.586 -0.711,-1.664 -0.793,-1.664"
       style="fill:none;stroke:#002e6a;stroke-width:1.74281;stroke-linecap:round;stroke-linejoin:round;stroke-miterlimit:4;stroke-dasharray:none;stroke-opacity:0.82"
       transform="scale(1.3333333)" />
    <path
       id="path36"
       d="m 83.062,200.977 2.376,2.851 1.191,1.348 2.375,2.695 1.187,1.266 1.188,1.187 1.269,1.192 1.188,1.187 1.187,1.109 1.27,1.11 1.187,1.109 1.266,0.949 1.192,1.032 1.265,0.949 1.188,0.871"
       style="fill:none;stroke:#002d68;stroke-width:1.74281;stroke-linecap:round;stroke-linejoin:round;stroke-miterlimit:4;stroke-dasharray:none;stroke-opacity:0.81"
       transform="scale(1.3333333)" />
    <path
       id="path37"
       d="m 102.391,219.832 2.617,0.316 2.535,0.239 2.531,0.238 2.617,0.238 2.536,0.157 2.535,0.078 2.613,0.082 h 5.07 l 2.535,-0.082 2.536,-0.078 2.535,-0.157 5.07,-0.476 2.453,-0.239 2.535,-0.316"
       style="fill:none;stroke:#002b64;stroke-width:1.74281;stroke-linecap:round;stroke-linejoin:round;stroke-miterlimit:4;stroke-dasharray:none;stroke-opacity:0.77"
       transform="scale(1.3333333)" />
    <path
       id="path38"
       d="m 143.109,219.832 2.141,-0.871 2.059,-0.949 2.14,-1.032 2.059,-0.949 2.058,-1.109 2.141,-1.11 1.981,-1.109 2.058,-1.187 2.059,-1.192 1.98,-1.187 1.981,-1.266 5.941,-4.043 3.805,-2.851"
       style="fill:none;stroke:#002b64;stroke-width:1.74281;stroke-linecap:round;stroke-linejoin:round;stroke-miterlimit:4;stroke-dasharray:none;stroke-opacity:0.77"
       transform="scale(1.3333333)" />
    <path
       id="path39"
       d="m 232.312,152.336 0.157,-1.66 0.078,-1.586 0.16,-1.664 v -6.891 l -0.078,-1.742 -0.16,-1.746 -0.157,-1.82 -0.16,-1.821 -0.238,-1.746 -0.238,-1.898 -0.317,-1.824 -0.316,-1.821 -0.316,-1.902"
       style="fill:none;stroke:#002c66;stroke-width:1.74281;stroke-linecap:round;stroke-linejoin:round;stroke-miterlimit:4;stroke-dasharray:none;stroke-opacity:0.79"
       transform="scale(1.3333333)" />
    <path
       id="path40"
       d="m 175.512,200.977 2.218,-0.711 2.137,-0.715 2.219,-0.789 2.141,-0.793 2.058,-0.793 2.137,-0.871 2.062,-0.871 2.059,-0.872 1.98,-0.953 2.059,-1.027 1.902,-1.031 1.981,-1.031 1.902,-1.028 1.899,-1.109 1.902,-1.11 1.824,-1.187"
       style="fill:none;stroke:#002b63;stroke-width:1.74281;stroke-linecap:round;stroke-linejoin:round;stroke-miterlimit:4;stroke-dasharray:none;stroke-opacity:0.77"
       transform="scale(1.3333333)" />
    <path
       id="path41"
       d="m 207.992,186.086 1.82,-1.902 1.743,-1.903 3.328,-3.961 1.664,-2.058 1.582,-1.981 1.586,-2.14 1.504,-2.059 1.508,-2.137 1.503,-2.14 2.852,-4.438 1.348,-2.215 1.347,-2.218 1.266,-2.297 1.269,-2.301"
       style="fill:none;stroke:#002a62;stroke-width:1.74281;stroke-linecap:round;stroke-linejoin:round;stroke-miterlimit:4;stroke-dasharray:none;stroke-opacity:0.76"
       transform="scale(1.3333333)" />
    <path
       id="path42"
       d="m 84.805,59.809 c 0,10.062 -8.157,18.222 -18.219,18.222 -10.063,0 -18.223,-8.16 -18.223,-18.222 0,-10.063 8.16,-18.219 18.223,-18.219 10.062,0 18.219,8.156 18.219,18.219 z"
       transform="scale(1.3333333)"
       style="fill:url(#radialGradient42);stroke:none" />
    <path
       id="path44"
       d="m 54.227,84.684 c 0,10.062 -8.157,18.222 -18.219,18.222 -10.063,0 -18.223,-8.16 -18.223,-18.222 0,-10.063 8.16,-18.219 18.223,-18.219 10.062,0 18.219,8.156 18.219,18.219 z"
       transform="scale(1.3333333)"
       style="fill:url(#radialGradient44);stroke:none" />
    <path
       id="path46"
       d="m 75.617,63.375 c 0,13.434 -10.89,24.32 -24.32,24.32 -13.434,0 -24.32,-10.886 -24.32,-24.32 0,-13.434 10.886,-24.32 24.32,-24.32 13.43,0 24.32,10.886 24.32,24.32 z"
       transform="scale(1.3333333)"
       style="fill:url(#radialGradient46);stroke:none" />
    <path
       id="path48"
       d="m 54.227,41.984 c 0,10.063 -8.157,18.223 -18.219,18.223 -10.063,0 -18.223,-8.16 -18.223,-18.223 0,-10.062 8.16,-18.218 18.223,-18.218 10.062,0 18.219,8.156 18.219,18.218 z"
       transform="scale(1.3333333)"
       style="fill:url(#radialGradient48);stroke:none" />
    <path
       id="path50"
       d="m 84.805,66.941 c 0,10.063 -8.157,18.219 -18.219,18.219 -10.063,0 -18.223,-8.156 -18.223,-18.219 0,-10.062 8.16,-18.222 18.223,-18.222 10.062,0 18.219,8.16 18.219,18.222 z"
       transform="scale(1.3333333)"
       style="fill:url(#radialGradient50);stroke:none" />
    <path
       id="path52"
       d="m 78.863,162.398 c 0,13.434 -10.886,24.321 -24.32,24.321 -13.43,0 -24.32,-10.887 -24.32,-24.321 0,-13.433 10.89,-24.32 24.32,-24.32 13.434,0 24.32,10.887 24.32,24.32 z"
       transform="scale(1.3333333)"
       style="fill:url(#radialGradient52);stroke:none" />
    <path
       id="path54"
       d="m 104.215,162.398 c 0,13.434 -10.891,24.321 -24.32,24.321 -13.434,0 -24.321,-10.887 -24.321,-24.321 0,-13.433 10.887,-24.32 24.321,-24.32 13.429,0 24.32,10.887 24.32,24.32 z"
       transform="scale(1.3333333)"
       style="fill:url(#radialGradient54);stroke:none" />
    <path
       id="path56"
       d="m 207.594,97.281 c 0,13.43 -10.887,24.321 -24.321,24.321 -13.429,0 -24.32,-10.891 -24.32,-24.321 0,-13.433 10.891,-24.32 24.32,-24.32 13.434,0 24.321,10.887 24.321,24.32 z"
       transform="scale(1.3333333)"
       style="fill:url(#radialGradient56);stroke:none" />
    <path
       id="path58"
       d="m 233.418,97.281 c 0,13.43 -10.887,24.321 -24.32,24.321 -13.43,0 -24.317,-10.891 -24.317,-24.321 0,-13.433 10.887,-24.32 24.317,-24.32 13.433,0 24.32,10.887 24.32,24.32 z"
       transform="scale(1.3333333)"
       style="fill:url(#radialGradient58);stroke:none" />
    <path
       id="path60"
       d="m 229.855,164.934 c 0,13.429 -10.89,24.32 -24.32,24.32 -13.433,0 -24.32,-10.891 -24.32,-24.32 0,-13.434 10.887,-24.321 24.32,-24.321 13.43,0 24.32,10.887 24.32,24.321 z"
       transform="scale(1.3333333)"
       style="fill:url(#radialGradient60);stroke:none" />
    <path
       id="path62"
       d="m 255.918,175.867 c 0,13.43 -10.887,24.321 -24.32,24.321 -13.434,0 -24.321,-10.891 -24.321,-24.321 0,-13.433 10.887,-24.32 24.321,-24.32 13.433,0 24.32,10.887 24.32,24.32 z"
       transform="scale(1.3333333)"
       style="fill:url(#radialGradient62);stroke:none" />
    <path
       id="path64"
       d="m 279.367,164.934 c 0,13.429 -10.89,24.32 -24.32,24.32 -13.434,0 -24.32,-10.891 -24.32,-24.32 0,-13.434 10.886,-24.321 24.32,-24.321 13.43,0 24.32,10.887 24.32,24.321 z"
       transform="scale(1.3333333)"
       style="fill:url(#radialGradient64);stroke:none" />
    <text
       id="text64"
       xml:space="preserve"
       transform="matrix(1.3333333,0,0,1.3333333,418.6875,261.6238)"><tspan
         id="tspan64"
         style="font-variant:normal;font-weight:500;font-size:218.156px;font-family:'Helvetica Neue';writing-mode:lr-tb;fill:#ff8c00;fill-opacity:1;fill-rule:nonzero;stroke:none"
         x="0"
         dx="0 14.616468 14.616468 14.616468 14.616468 -1.5270938 11.344125 14.616468 14.616468"
         y="0">CheMPAS-A</tspan></text>
  </g>
</svg>
