<?xml version='1.0' encoding='utf-8'?>
<svg xmlns="http://www.w3.org/2000/svg" viewBox="75.5 126.1 460.0 354.1" width="512" height="394">
  <defs>
    <radialGradient id="carbonGrad" cx="35%" cy="30%" r="65%">
      <stop offset="0%" style="stop-color:#666666" />
      <stop offset="100%" style="stop-color:#1a1a1a" />
    </radialGradient>
    <radialGradient id="hydrogenGrad" cx="35%" cy="30%" r="65%">
      <stop offset="0%" style="stop-color:#ffffff" />
      <stop offset="100%" style="stop-color:#aaaaaa" />
    </radialGradient>
    <radialGradient id="oxygenGrad" cx="35%" cy="30%" r="65%">
      <stop offset="0%" style="stop-color:#EF4056" />
      <stop offset="100%" style="stop-color:#8B0015" />
    </radialGradient>
    <radialGradient id="nitrogenGrad" cx="35%" cy="30%" r="65%">
      <stop offset="0%" style="stop-color:#A95C42" />
      <stop offset="100%" style="stop-color:#8B0015" />
    </radialGradient>
    <radialGradient id="shadow">
      <stop offset="0%" style="stop-color:#000;stop-opacity:0.06" />
      <stop offset="100%" style="stop-color:#000;stop-opacity:0" />
    </radialGradient>
  </defs>
  <ellipse cx="256.0" cy="396.6" rx="116.7" ry="19.5" fill="url(#shadow)" />
  <path d="M 413.4 312.3 L 413.6 309.5 L 413.8 306.8 L 413.9 303.9 L 413.9 301.1 L 413.9 298.2 L 413.8 295.2 L 413.6 292.2 L 413.3 289.2 L 412.9 286.2 L 412.5 283.1 L 412.0 279.9 L 411.4 276.8 L 408.5 277.9 L 405.6 279.0 L 402.5 280.1 L 399.4 281.1 L 396.2 282.1 L 392.8 283.1 L 389.5 284.0 L 386.0 284.9 L 382.4 285.7 L 378.8 286.5 L 375.1 287.3 L 371.3 288.0 L 368.4 293.2 L 365.4 298.5 L 362.3 303.6 L 359.1 308.7 L 355.7 313.6 L 352.3 318.5 L 348.8 323.3 L 345.2 327.9 L 341.5 332.5 L 337.7 337.0 L 333.9 341.3 L 329.9 345.5 L 331.2 348.3 L 332.4 351.1 L 333.5 353.7 L 334.6 356.3 L 335.7 358.7 L 336.7 361.1 L 337.7 363.4 L 338.6 365.7 L 339.4 367.8 L 340.3 369.8 L 341.0 371.8 L 341.7 373.7 L 345.4 372.5 L 349.1 371.3 L 352.7 369.9 L 356.2 368.6 L 359.7 367.1 L 363.2 365.6 L 366.6 364.0 L 369.9 362.3 L 373.2 360.5 L 376.5 358.7 L 379.6 356.8 L 382.7 354.9 L 385.7 351.7 L 388.6 348.4 L 391.4 345.1 L 394.2 341.7 L 396.8 338.2 L 399.4 334.7 L 402.0 331.1 L 404.4 327.4 L 406.8 323.7 L 409.1 320.0 L 411.3 316.2 Z" fill="#a04134" stroke="#a04134" stroke-width="0.5" />
  <path d="M 341.7 373.7 L 341.0 371.8 L 340.3 369.8 L 339.4 367.8 L 338.6 365.7 L 337.7 363.4 L 336.7 361.1 L 335.7 358.7 L 334.6 356.3 L 333.5 353.7 L 332.4 351.1 L 331.2 348.3 L 329.9 345.5 L 324.4 346.2 L 318.8 346.8 L 313.2 347.2 L 307.5 347.5 L 301.8 347.7 L 296.0 347.8 L 290.1 347.7 L 284.3 347.5 L 278.4 347.2 L 272.5 346.8 L 266.5 346.2 L 260.6 345.5 L 257.6 348.3 L 254.6 351.1 L 251.6 353.7 L 248.6 356.3 L 245.6 358.7 L 242.7 361.1 L 239.7 363.4 L 236.7 365.7 L 233.8 367.8 L 230.8 369.8 L 227.9 371.8 L 225.0 373.7 L 227.0 376.1 L 229.0 378.4 L 231.0 380.7 L 233.0 382.9 L 235.0 385.0 L 237.1 387.0 L 239.1 389.0 L 241.2 390.9 L 243.2 392.7 L 245.3 394.4 L 247.4 396.0 L 249.4 397.5 L 253.8 398.0 L 258.1 398.4 L 262.4 398.8 L 266.7 399.0 L 271.0 399.2 L 275.3 399.2 L 279.6 399.2 L 283.8 399.0 L 288.1 398.8 L 292.3 398.4 L 296.6 398.0 L 300.8 397.5 L 304.3 396.0 L 307.9 394.4 L 311.4 392.7 L 314.9 390.9 L 318.4 389.0 L 321.8 387.0 L 325.2 385.0 L 328.6 382.9 L 331.9 380.7 L 335.2 378.4 L 338.5 376.1 Z" fill="#92161f" stroke="#92161f" stroke-width="0.5" />
  <path d="M 423.3 227.1 L 422.1 223.5 L 420.7 219.9 L 419.3 216.4 L 417.8 212.8 L 416.2 209.2 L 414.5 205.7 L 412.7 202.1 L 410.9 198.5 L 408.9 195.0 L 406.9 191.5 L 404.8 188.0 L 402.7 184.5 L 399.8 184.0 L 396.9 183.5 L 393.9 183.1 L 390.9 182.7 L 387.8 182.3 L 384.6 181.9 L 381.4 181.5 L 378.1 181.2 L 374.8 180.8 L 371.3 180.5 L 367.9 180.2 L 364.4 179.9 L 363.0 184.1 L 361.5 188.2 L 359.9 192.4 L 358.3 196.6 L 356.7 200.8 L 354.9 205.0 L 353.2 209.3 L 351.3 213.5 L 349.4 217.7 L 347.5 221.9 L 345.5 226.2 L 343.4 230.4 L 346.2 235.4 L 349.0 240.3 L 351.7 245.3 L 354.3 250.2 L 356.8 255.1 L 359.2 259.9 L 361.5 264.7 L 363.6 269.5 L 365.7 274.2 L 367.7 278.8 L 369.6 283.4 L 371.3 288.0 L 375.1 287.3 L 378.8 286.5 L 382.4 285.7 L 386.0 284.9 L 389.5 284.0 L 392.8 283.1 L 396.2 282.1 L 399.4 281.1 L 402.5 280.1 L 405.6 279.0 L 408.5 277.9 L 411.4 276.8 L 412.8 272.8 L 414.2 268.7 L 415.4 264.6 L 416.6 260.5 L 417.7 256.4 L 418.8 252.2 L 419.7 248.1 L 420.6 243.9 L 421.4 239.7 L 422.1 235.5 L 422.8 231.3 Z" fill="#d04c4d" stroke="#d04c4d" stroke-width="0.5" />
  <path d="M 260.6 345.5 L 258.2 341.3 L 255.9 337.0 L 253.5 332.5 L 251.1 327.9 L 248.8 323.3 L 246.4 318.5 L 244.1 313.6 L 241.8 308.7 L 239.5 303.6 L 237.2 298.5 L 234.9 293.2 L 232.6 288.0 L 227.9 287.3 L 223.3 286.5 L 218.6 285.7 L 214.0 284.9 L 209.3 284.0 L 204.8 283.1 L 200.2 282.1 L 195.7 281.1 L 191.2 280.1 L 186.8 279.0 L 182.4 277.9 L 178.0 276.8 L 176.0 279.9 L 174.0 283.1 L 172.1 286.2 L 170.2 289.2 L 168.4 292.2 L 166.6 295.2 L 164.8 298.2 L 163.1 301.1 L 161.5 303.9 L 159.8 306.8 L 158.3 309.5 L 156.7 312.3 L 158.2 316.2 L 159.7 320.0 L 161.3 323.7 L 162.9 327.4 L 164.5 331.1 L 166.2 334.7 L 168.0 338.2 L 169.8 341.7 L 171.6 345.1 L 173.5 348.4 L 175.4 351.7 L 177.4 354.9 L 181.2 356.8 L 185.1 358.7 L 188.9 360.5 L 192.8 362.3 L 196.8 364.0 L 200.7 365.6 L 204.7 367.1 L 208.7 368.6 L 212.8 369.9 L 216.8 371.3 L 220.9 372.5 L 225.0 373.7 L 227.9 371.8 L 230.8 369.8 L 233.8 367.8 L 236.7 365.7 L 239.7 363.4 L 242.7 361.1 L 245.6 358.7 L 248.6 356.3 L 251.6 353.7 L 254.6 351.1 L 257.6 348.3 Z" fill="#941b22" stroke="#941b22" stroke-width="0.5" />
  <path d="M 371.3 288.0 L 369.6 283.4 L 367.7 278.8 L 365.7 274.2 L 363.6 269.5 L 361.5 264.7 L 359.2 259.9 L 356.8 255.1 L 354.3 250.2 L 351.7 245.3 L 349.0 240.3 L 346.2 235.4 L 343.4 230.4 L 337.9 230.5 L 332.4 230.5 L 326.8 230.6 L 321.2 230.6 L 315.4 230.6 L 309.6 230.6 L 303.8 230.6 L 297.9 230.6 L 292.0 230.6 L 286.0 230.5 L 280.1 230.5 L 274.0 230.4 L 270.6 235.4 L 267.2 240.3 L 263.7 245.3 L 260.2 250.2 L 256.8 255.1 L 253.3 259.9 L 249.8 264.7 L 246.4 269.5 L 242.9 274.2 L 239.5 278.8 L 236.0 283.4 L 232.6 288.0 L 234.9 293.2 L 237.2 298.5 L 239.5 303.6 L 241.8 308.7 L 244.1 313.6 L 246.4 318.5 L 248.8 323.3 L 251.1 327.9 L 253.5 332.5 L 255.9 337.0 L 258.2 341.3 L 260.6 345.5 L 266.5 346.2 L 272.5 346.8 L 278.4 347.2 L 284.3 347.5 L 290.1 347.7 L 296.0 347.8 L 301.8 347.7 L 307.5 347.5 L 313.2 347.2 L 318.8 346.8 L 324.4 346.2 L 329.9 345.5 L 333.9 341.3 L 337.7 337.0 L 341.5 332.5 L 345.2 327.9 L 348.8 323.3 L 352.3 318.5 L 355.7 313.6 L 359.1 308.7 L 362.3 303.6 L 365.4 298.5 L 368.4 293.2 Z" fill="#ae5943" stroke="#ae5943" stroke-width="0.5" />
  <path d="M 364.4 179.9 L 361.8 176.6 L 359.2 173.3 L 356.6 170.1 L 353.8 166.8 L 351.1 163.6 L 348.3 160.4 L 345.5 157.2 L 342.6 154.1 L 339.7 151.0 L 336.7 147.9 L 333.7 144.9 L 330.6 141.9 L 326.5 141.6 L 322.4 141.5 L 318.2 141.3 L 314.0 141.2 L 309.7 141.2 L 305.4 141.1 L 301.1 141.2 L 296.8 141.2 L 292.5 141.3 L 288.1 141.5 L 283.7 141.6 L 279.3 141.9 L 276.7 144.9 L 274.1 147.9 L 271.5 151.0 L 268.8 154.1 L 266.2 157.2 L 263.5 160.4 L 260.9 163.6 L 258.3 166.8 L 255.6 170.1 L 253.0 173.3 L 250.3 176.6 L 247.7 179.9 L 249.9 184.1 L 252.1 188.2 L 254.3 192.4 L 256.5 196.6 L 258.7 200.8 L 260.9 205.0 L 263.1 209.3 L 265.3 213.5 L 267.5 217.7 L 269.7 221.9 L 271.9 226.2 L 274.0 230.4 L 280.1 230.5 L 286.0 230.5 L 292.0 230.6 L 297.9 230.6 L 303.8 230.6 L 309.6 230.6 L 315.4 230.6 L 321.2 230.6 L 326.8 230.6 L 332.4 230.5 L 337.9 230.5 L 343.4 230.4 L 345.5 226.2 L 347.5 221.9 L 349.4 217.7 L 351.3 213.5 L 353.2 209.3 L 354.9 205.0 L 356.7 200.8 L 358.3 196.6 L 359.9 192.4 L 361.5 188.2 L 363.0 184.1 Z" fill="#ef4056" stroke="#ef4056" stroke-width="0.5" />
  <path d="M 274.0 230.4 L 271.9 226.2 L 269.7 221.9 L 267.5 217.7 L 265.3 213.5 L 263.1 209.3 L 260.9 205.0 L 258.7 200.8 L 256.5 196.6 L 254.3 192.4 L 252.1 188.2 L 249.9 184.1 L 247.7 179.9 L 243.4 180.2 L 239.1 180.5 L 234.9 180.8 L 230.6 181.2 L 226.4 181.5 L 222.2 181.9 L 218.0 182.3 L 213.8 182.7 L 209.7 183.1 L 205.5 183.5 L 201.4 184.0 L 197.3 184.5 L 194.6 188.0 L 191.8 191.5 L 189.2 195.0 L 186.5 198.5 L 183.9 202.1 L 181.3 205.7 L 178.8 209.2 L 176.3 212.8 L 173.8 216.4 L 171.4 219.9 L 169.0 223.5 L 166.7 227.1 L 167.4 231.3 L 168.2 235.5 L 169.0 239.7 L 169.8 243.9 L 170.7 248.1 L 171.6 252.2 L 172.6 256.4 L 173.6 260.5 L 174.6 264.6 L 175.7 268.7 L 176.8 272.8 L 178.0 276.8 L 182.4 277.9 L 186.8 279.0 L 191.2 280.1 L 195.7 281.1 L 200.2 282.1 L 204.8 283.1 L 209.3 284.0 L 214.0 284.9 L 218.6 285.7 L 223.3 286.5 L 227.9 287.3 L 232.6 288.0 L 236.0 283.4 L 239.5 278.8 L 242.9 274.2 L 246.4 269.5 L 249.8 264.7 L 253.3 259.9 L 256.8 255.1 L 260.2 250.2 L 263.7 245.3 L 267.2 240.3 L 270.6 235.4 Z" fill="#b45745" stroke="#b45745" stroke-width="0.5" />
  <path d="M 371.3 288.0 L 370.0 284.6 L 368.7 281.1 L 367.2 277.7 L 365.7 274.2 L 364.2 270.7 L 362.6 267.1 L 360.9 263.5 L 359.2 259.9 L 357.4 256.3 L 355.5 252.6 L 353.6 249.0 L 351.7 245.3 L 349.7 241.6 L 347.6 237.9 L 345.5 234.1 L 343.4 230.4" fill="none" stroke="#a8041e" stroke-width="2.2" stroke-opacity="0.90" stroke-linecap="round" stroke-linejoin="round" />
  <path d="M 343.4 230.4 L 339.3 230.4 L 335.2 230.5 L 331.0 230.5 L 326.8 230.6 L 322.6 230.6 L 318.3 230.6 L 314.0 230.6 L 309.6 230.6 L 305.3 230.6 L 300.9 230.6 L 296.4 230.6 L 292.0 230.6 L 287.5 230.5 L 283.0 230.5 L 278.5 230.4 L 274.0 230.4" fill="none" stroke="#aa041f" stroke-width="2.2" stroke-opacity="0.94" stroke-linecap="round" stroke-linejoin="round" />
  <path d="M 274.0 230.4 L 271.5 234.1 L 268.9 237.9 L 266.3 241.6 L 263.7 245.3 L 261.1 249.0 L 258.5 252.6 L 255.9 256.3 L 253.3 259.9 L 250.7 263.5 L 248.1 267.1 L 245.5 270.7 L 242.9 274.2 L 240.3 277.7 L 237.8 281.1 L 235.2 284.6 L 232.6 288.0" fill="none" stroke="#aa041f" stroke-width="2.2" stroke-opacity="0.94" stroke-linecap="round" stroke-linejoin="round" />
  <path d="M 232.6 288.0 L 234.3 291.9 L 236.0 295.9 L 237.7 299.8 L 239.5 303.6 L 241.2 307.4 L 242.9 311.1 L 244.7 314.8 L 246.4 318.5 L 248.2 322.1 L 250.0 325.6 L 251.7 329.1 L 253.5 332.5 L 255.3 335.9 L 257.0 339.1 L 258.8 342.4 L 260.6 345.5" fill="none" stroke="#a8041f" stroke-width="2.2" stroke-opacity="0.91" stroke-linecap="round" stroke-linejoin="round" />
  <path d="M 260.6 345.5 L 265.0 346.1 L 269.5 346.5 L 273.9 346.9 L 278.4 347.2 L 282.8 347.5 L 287.2 347.6 L 291.6 347.7 L 296.0 347.8 L 300.3 347.7 L 304.6 347.6 L 308.9 347.5 L 313.2 347.2 L 317.4 346.9 L 321.6 346.5 L 325.8 346.1 L 329.9 345.5" fill="none" stroke="#a6041e" stroke-width="2.2" stroke-opacity="0.87" stroke-linecap="round" stroke-linejoin="round" />
  <path d="M 329.9 345.5 L 332.9 342.4 L 335.8 339.1 L 338.7 335.9 L 341.5 332.5 L 344.3 329.1 L 347.0 325.6 L 349.7 322.1 L 352.3 318.5 L 354.9 314.8 L 357.4 311.1 L 359.9 307.4 L 362.3 303.6 L 364.6 299.8 L 366.9 295.9 L 369.2 291.9 L 371.3 288.0" fill="none" stroke="#a6041e" stroke-width="2.2" stroke-opacity="0.87" stroke-linecap="round" stroke-linejoin="round" />
  <path d="M 423.3 227.1 L 422.4 224.4 L 421.4 221.7 L 420.4 219.0 L 419.3 216.4 L 418.2 213.7 L 417.0 211.0 L 415.8 208.3 L 414.5 205.7 L 413.2 203.0 L 411.8 200.3 L 410.4 197.7 L 408.9 195.0 L 407.4 192.4 L 405.9 189.7 L 404.3 187.1 L 402.7 184.5" fill="none" stroke="#a4031d" stroke-width="2.2" stroke-opacity="0.83" stroke-linecap="round" stroke-linejoin="round" />
  <path d="M 402.7 184.5 L 400.5 184.1 L 398.4 183.8 L 396.2 183.4 L 393.9 183.1 L 391.7 182.8 L 389.4 182.5 L 387.0 182.2 L 384.6 181.9 L 382.2 181.6 L 379.8 181.3 L 377.3 181.1 L 374.8 180.8 L 372.2 180.6 L 369.6 180.4 L 367.0 180.1 L 364.4 179.9" fill="none" stroke="#a6041e" stroke-width="2.2" stroke-opacity="0.87" stroke-linecap="round" stroke-linejoin="round" />
  <path d="M 364.4 179.9 L 363.3 183.0 L 362.2 186.2 L 361.1 189.3 L 359.9 192.4 L 358.7 195.6 L 357.5 198.7 L 356.2 201.9 L 354.9 205.0 L 353.6 208.2 L 352.2 211.4 L 350.9 214.5 L 349.4 217.7 L 348.0 220.9 L 346.5 224.1 L 344.9 227.2 L 343.4 230.4" fill="none" stroke="#a8041f" stroke-width="2.2" stroke-opacity="0.91" stroke-linecap="round" stroke-linejoin="round" />
  <path d="M 371.3 288.0 L 374.2 287.4 L 377.0 286.9 L 379.7 286.3 L 382.4 285.7 L 385.1 285.1 L 387.7 284.4 L 390.3 283.8 L 392.8 283.1 L 395.3 282.4 L 397.8 281.6 L 400.2 280.9 L 402.5 280.1 L 404.8 279.3 L 407.1 278.5 L 409.3 277.7 L 411.4 276.8" fill="none" stroke="#a4041d" stroke-width="2.2" stroke-opacity="0.85" stroke-linecap="round" stroke-linejoin="round" />
  <path d="M 411.4 276.8 L 412.5 273.8 L 413.5 270.7 L 414.5 267.7 L 415.4 264.6 L 416.3 261.5 L 417.2 258.4 L 418.0 255.3 L 418.8 252.2 L 419.5 249.1 L 420.2 246.0 L 420.8 242.8 L 421.4 239.7 L 422.0 236.6 L 422.5 233.4 L 422.9 230.2 L 423.3 227.1" fill="none" stroke="#a3031d" stroke-width="2.2" stroke-opacity="0.82" stroke-linecap="round" stroke-linejoin="round" />
  <path d="M 364.4 179.9 L 362.5 177.5 L 360.5 175.0 L 358.5 172.5 L 356.6 170.1 L 354.5 167.6 L 352.5 165.2 L 350.4 162.8 L 348.3 160.4 L 346.2 158.0 L 344.0 155.7 L 341.9 153.3 L 339.7 151.0 L 337.4 148.7 L 335.2 146.4 L 332.9 144.1 L 330.6 141.9" fill="none" stroke="#a8041f" stroke-width="2.2" stroke-opacity="0.90" stroke-linecap="round" stroke-linejoin="round" />
  <path d="M 330.6 141.9 L 327.6 141.7 L 324.5 141.5 L 321.3 141.4 L 318.2 141.3 L 315.0 141.2 L 311.8 141.2 L 308.7 141.1 L 305.4 141.1 L 302.2 141.1 L 299.0 141.2 L 295.7 141.2 L 292.5 141.3 L 289.2 141.4 L 285.9 141.5 L 282.6 141.7 L 279.3 141.9" fill="none" stroke="#a9041f" stroke-width="2.2" stroke-opacity="0.92" stroke-linecap="round" stroke-linejoin="round" />
  <path d="M 279.3 141.9 L 277.4 144.1 L 275.4 146.4 L 273.4 148.7 L 271.5 151.0 L 269.5 153.3 L 267.5 155.7 L 265.5 158.0 L 263.5 160.4 L 261.6 162.8 L 259.6 165.2 L 257.6 167.6 L 255.6 170.1 L 253.6 172.5 L 251.6 175.0 L 249.6 177.5 L 247.7 179.9" fill="none" stroke="#aa041f" stroke-width="2.2" stroke-opacity="0.94" stroke-linecap="round" stroke-linejoin="round" />
  <path d="M 247.7 179.9 L 249.3 183.0 L 251.0 186.2 L 252.6 189.3 L 254.3 192.4 L 255.9 195.6 L 257.6 198.7 L 259.2 201.9 L 260.9 205.0 L 262.6 208.2 L 264.2 211.4 L 265.9 214.5 L 267.5 217.7 L 269.1 220.9 L 270.8 224.1 L 272.4 227.2 L 274.0 230.4" fill="none" stroke="#aa041f" stroke-width="2.2" stroke-opacity="0.95" stroke-linecap="round" stroke-linejoin="round" />
  <path d="M 247.7 179.9 L 244.5 180.1 L 241.3 180.4 L 238.1 180.6 L 234.9 180.8 L 231.7 181.1 L 228.5 181.3 L 225.4 181.6 L 222.2 181.9 L 219.1 182.2 L 215.9 182.5 L 212.8 182.8 L 209.7 183.1 L 206.6 183.4 L 203.5 183.8 L 200.4 184.1 L 197.3 184.5" fill="none" stroke="#aa041f" stroke-width="2.2" stroke-opacity="0.94" stroke-linecap="round" stroke-linejoin="round" />
  <path d="M 197.3 184.5 L 195.3 187.1 L 193.2 189.7 L 191.2 192.4 L 189.2 195.0 L 187.2 197.7 L 185.2 200.3 L 183.2 203.0 L 181.3 205.7 L 179.4 208.3 L 177.5 211.0 L 175.6 213.7 L 173.8 216.4 L 172.0 219.0 L 170.2 221.7 L 168.4 224.4 L 166.7 227.1" fill="none" stroke="#a9041f" stroke-width="2.2" stroke-opacity="0.93" stroke-linecap="round" stroke-linejoin="round" />
  <path d="M 166.7 227.1 L 167.2 230.2 L 167.8 233.4 L 168.4 236.6 L 169.0 239.7 L 169.6 242.8 L 170.2 246.0 L 170.9 249.1 L 171.6 252.2 L 172.3 255.3 L 173.1 258.4 L 173.8 261.5 L 174.6 264.6 L 175.4 267.7 L 176.3 270.7 L 177.1 273.8 L 178.0 276.8" fill="none" stroke="#a9041f" stroke-width="2.2" stroke-opacity="0.92" stroke-linecap="round" stroke-linejoin="round" />
  <path d="M 178.0 276.8 L 181.3 277.7 L 184.5 278.5 L 187.9 279.3 L 191.2 280.1 L 194.6 280.9 L 197.9 281.6 L 201.3 282.4 L 204.8 283.1 L 208.2 283.8 L 211.6 284.4 L 215.1 285.1 L 218.6 285.7 L 222.1 286.3 L 225.6 286.9 L 229.1 287.4 L 232.6 288.0" fill="none" stroke="#a9041f" stroke-width="2.2" stroke-opacity="0.92" stroke-linecap="round" stroke-linejoin="round" />
  <path d="M 178.0 276.8 L 176.5 279.2 L 175.0 281.5 L 173.5 283.8 L 172.1 286.2 L 170.7 288.4 L 169.3 290.7 L 167.9 293.0 L 166.6 295.2 L 165.3 297.4 L 164.0 299.6 L 162.7 301.8 L 161.5 303.9 L 160.2 306.1 L 159.0 308.2 L 157.9 310.2 L 156.7 312.3" fill="none" stroke="#a7041e" stroke-width="2.2" stroke-opacity="0.89" stroke-linecap="round" stroke-linejoin="round" />
  <path d="M 156.7 312.3 L 157.8 315.2 L 158.9 318.1 L 160.1 320.9 L 161.3 323.7 L 162.5 326.5 L 163.7 329.3 L 164.9 332.0 L 166.2 334.7 L 167.5 337.3 L 168.9 340.0 L 170.2 342.5 L 171.6 345.1 L 173.0 347.6 L 174.5 350.1 L 175.9 352.5 L 177.4 354.9" fill="none" stroke="#a5041e" stroke-width="2.2" stroke-opacity="0.85" stroke-linecap="round" stroke-linejoin="round" />
  <path d="M 177.4 354.9 L 180.3 356.4 L 183.1 357.8 L 186.0 359.2 L 188.9 360.5 L 191.9 361.8 L 194.8 363.1 L 197.8 364.4 L 200.7 365.6 L 203.7 366.7 L 206.7 367.8 L 209.8 368.9 L 212.8 369.9 L 215.8 370.9 L 218.9 371.9 L 222.0 372.8 L 225.0 373.7" fill="none" stroke="#a4031d" stroke-width="2.2" stroke-opacity="0.84" stroke-linecap="round" stroke-linejoin="round" />
  <path d="M 225.0 373.7 L 227.2 372.3 L 229.4 370.8 L 231.6 369.3 L 233.8 367.8 L 236.0 366.2 L 238.2 364.6 L 240.4 362.9 L 242.7 361.1 L 244.9 359.4 L 247.1 357.5 L 249.4 355.6 L 251.6 353.7 L 253.9 351.7 L 256.1 349.7 L 258.3 347.6 L 260.6 345.5" fill="none" stroke="#a5041e" stroke-width="2.2" stroke-opacity="0.86" stroke-linecap="round" stroke-linejoin="round" />
  <path d="M 341.7 373.7 L 341.2 372.3 L 340.6 370.8 L 340.1 369.3 L 339.4 367.8 L 338.8 366.2 L 338.1 364.6 L 337.4 362.9 L 336.7 361.1 L 336.0 359.4 L 335.2 357.5 L 334.4 355.6 L 333.5 353.7 L 332.7 351.7 L 331.8 349.7 L 330.9 347.6 L 329.9 345.5" fill="none" stroke="#a3031d" stroke-width="2.2" stroke-opacity="0.82" stroke-linecap="round" stroke-linejoin="round" />
  <path d="M 225.0 373.7 L 226.5 375.5 L 228.0 377.3 L 229.5 379.0 L 231.0 380.7 L 232.5 382.4 L 234.0 384.0 L 235.5 385.5 L 237.1 387.0 L 238.6 388.5 L 240.1 389.9 L 241.7 391.3 L 243.2 392.7 L 244.8 393.9 L 246.3 395.2 L 247.9 396.4 L 249.4 397.5" fill="none" stroke="#a2031d" stroke-width="2.2" stroke-opacity="0.81" stroke-linecap="round" stroke-linejoin="round" />
  <path d="M 249.4 397.5 L 252.7 397.9 L 255.9 398.2 L 259.1 398.5 L 262.4 398.8 L 265.6 399.0 L 268.8 399.1 L 272.1 399.2 L 275.3 399.2 L 278.5 399.2 L 281.7 399.1 L 284.9 399.0 L 288.1 398.8 L 291.3 398.5 L 294.5 398.2 L 297.6 397.9 L 300.8 397.5" fill="none" stroke="#a0031c" stroke-width="2.2" stroke-opacity="0.77" stroke-linecap="round" stroke-linejoin="round" />
  <path d="M 300.8 397.5 L 303.5 396.4 L 306.1 395.2 L 308.8 393.9 L 311.4 392.7 L 314.0 391.3 L 316.7 389.9 L 319.2 388.5 L 321.8 387.0 L 324.4 385.5 L 326.9 384.0 L 329.4 382.4 L 331.9 380.7 L 334.4 379.0 L 336.9 377.3 L 339.3 375.5 L 341.7 373.7" fill="none" stroke="#a0031c" stroke-width="2.2" stroke-opacity="0.77" stroke-linecap="round" stroke-linejoin="round" />
  <path d="M 413.4 312.3 L 413.6 310.2 L 413.7 308.2 L 413.9 306.1 L 413.9 303.9 L 413.9 301.8 L 413.9 299.6 L 413.9 297.4 L 413.8 295.2 L 413.6 293.0 L 413.4 290.7 L 413.2 288.4 L 412.9 286.2 L 412.6 283.8 L 412.2 281.5 L 411.8 279.2 L 411.4 276.8" fill="none" stroke="#a1031c" stroke-width="2.2" stroke-opacity="0.79" stroke-linecap="round" stroke-linejoin="round" />
  <path d="M 341.7 373.7 L 344.5 372.8 L 347.2 371.9 L 350.0 370.9 L 352.7 369.9 L 355.3 368.9 L 358.0 367.8 L 360.6 366.7 L 363.2 365.6 L 365.7 364.4 L 368.3 363.1 L 370.7 361.8 L 373.2 360.5 L 375.6 359.2 L 378.0 357.8 L 380.4 356.4 L 382.7 354.9" fill="none" stroke="#a0031c" stroke-width="2.2" stroke-opacity="0.77" stroke-linecap="round" stroke-linejoin="round" />
  <path d="M 382.7 354.9 L 385.0 352.5 L 387.2 350.1 L 389.3 347.6 L 391.4 345.1 L 393.5 342.5 L 395.5 340.0 L 397.5 337.3 L 399.4 334.7 L 401.3 332.0 L 403.2 329.3 L 405.0 326.5 L 406.8 323.7 L 408.5 320.9 L 410.2 318.1 L 411.8 315.2 L 413.4 312.3" fill="none" stroke="#9f031c" stroke-width="2.2" stroke-opacity="0.76" stroke-linecap="round" stroke-linejoin="round" />
  <circle cx="204.2" cy="195.5" r="23.0" fill="url(#hydrogenGrad)" />
  <circle cx="165.6" cy="226.9" r="23.0" fill="url(#hydrogenGrad)" />
  <circle cx="184.9" cy="200.0" r="30.7" fill="url(#carbonGrad)" />
  <circle cx="165.6" cy="173.0" r="23.0" fill="url(#hydrogenGrad)" />
  <circle cx="204.2" cy="204.5" r="23.0" fill="url(#hydrogenGrad)" />
  <circle cx="416.0" cy="186.4" r="30.7" fill="url(#carbonGrad)" />
  <circle cx="448.0" cy="186.4" r="30.7" fill="url(#oxygenGrad)" />
  <circle cx="351.5" cy="242.8" r="30.7" fill="url(#nitrogenGrad)" />
  <circle cx="384.1" cy="242.8" r="30.7" fill="url(#oxygenGrad)" />
  <circle cx="379.6" cy="328.2" r="30.7" fill="url(#oxygenGrad)" />
  <circle cx="412.5" cy="342.0" r="30.7" fill="url(#nitrogenGrad)" />
  <circle cx="442.1" cy="328.2" r="30.7" fill="url(#oxygenGrad)" />
  <text x="306" y="455" text-anchor="middle" font-family="Poppins, 'Helvetica Neue', Helvetica, Arial, sans-serif" font-weight="600" font-size="46" letter-spacing="10" fill="#AB0520">CheMPAS-A</text>
</svg>